<?xml version="1.0" encoding="utf-8"?>
<!-- Generator: Adobe Illustrator 24.2.1, SVG Export Plug-In . SVG Version: 6.00 Build 0)  -->
<svg version="1.1" id="alarm_1_" xmlns="http://www.w3.org/2000/svg" xmlns:xlink="http://www.w3.org/1999/xlink" x="0px" y="0px"
	 viewBox="0 0 20 20" style="enable-background:new 0 0 20 20;" xml:space="preserve">
<path id="g-alarm" d="M20,3.81l-4.6-3.82l-1.3,1.54l4.6,3.82L20,3.81z M5.85,1.48l-1.3-1.54L0,3.81l1.3,1.54L5.85,1.48z
	 M10.5,6.04H9V12l4.75,2.83l0.75-1.24l-4-2.33L10.5,6.04L10.5,6.04z M10,2.07c-4.97,0-8.99,4.03-8.99,9c0,4.97,4.03,8.99,9,8.99
	c4.97,0,8.99-4.03,8.99-9c0-4.96-4.03-8.99-8.99-8.99H10z M10,17.95c-3.84-0.03-6.92-3.16-6.9-7c0.03-3.84,3.16-6.92,7-6.9
	C13.92,4.08,17,7.19,17,11c0,3.84-3.11,6.95-6.95,6.95C10.03,17.95,10.02,17.95,10,17.95z"/>
</svg>
