<?xml version="1.0" encoding="utf-8"?>
<!-- Generator: Adobe Illustrator 24.2.1, SVG Export Plug-In . SVG Version: 6.00 Build 0)  -->
<svg version="1.1" id="alarms" xmlns="http://www.w3.org/2000/svg" xmlns:xlink="http://www.w3.org/1999/xlink" x="0px" y="0px"
	 viewBox="0 0 20 20" style="enable-background:new 0 0 20 20;" xml:space="preserve">
<path id="alarms_1_"  d="M10,20c1.38,0,2.5-1.12,2.5-2.5h-5C7.5,18.88,8.62,20,10,20z M18.41,14.15
	c-0.76-0.81-2.17-2.03-2.17-6.03c0-2.96-2.1-5.5-5-6.06V1.25C11.25,0.56,10.69,0,10,0S8.75,0.56,8.75,1.25v0.81
	c-2.9,0.56-5,3.1-5,6.06c0,4-1.41,5.22-2.17,6.03C1.37,14.38,1.25,14.69,1.25,15c0,0.69,0.56,1.25,1.25,1.25h15
	c0.69,0,1.25-0.56,1.25-1.25l0,0C18.75,14.68,18.63,14.38,18.41,14.15z"/>
</svg>
