<?xml version="1.0" encoding="utf-8"?>
<!-- Generator: Adobe Illustrator 24.2.1, SVG Export Plug-In . SVG Version: 6.00 Build 0)  -->
<svg version="1.1" id="analysis" xmlns="http://www.w3.org/2000/svg" xmlns:xlink="http://www.w3.org/1999/xlink" x="0px" y="0px"
	 viewBox="0 0 20 20" style="enable-background:new 0 0 20 20;" xml:space="preserve">
<g id="g-analysis">
	<path id="part5"  d="M8,0c4.42,0,8,3.58,8,8c0,4.42-3.58,8-8,8c-4.42,0-8-3.58-8-8c0-0.01,0-0.02,0-0.03
		C0.01,3.56,3.59,0,8,0z M8,1.54c-3.57,0-6.47,2.9-6.47,6.47c0,3.57,2.9,6.47,6.47,6.47c3.56,0,6.46-2.89,6.47-6.45
		c0.02-3.56-2.85-6.47-6.41-6.49C8.04,1.54,8.01,1.54,8,1.54L8,1.54z"/>
	<path id="part4"  d="M12.65,15.49c1.14-0.72,2.1-1.68,2.82-2.82c0.08,0.06,0.16,0.11,0.23,0.17
		c1.18,1.04,2.36,2.07,3.53,3.12c0.75,0.65,0.99,1.73,0.58,2.64c-0.38,0.9-1.3,1.46-2.27,1.39c-0.55-0.01-1.07-0.25-1.45-0.65
		C14.94,18.08,13.81,16.8,12.65,15.49z"/>
	<path id="part3"  d="M6.68,3.67h2.68v0.42c0,3-0.01,6.01,0.01,9.01c0,0.35-0.1,0.5-0.44,0.5
		c-0.66-0.01-1.32-0.01-1.98-0.02c-0.21,0-0.31-0.1-0.31-0.33c0.01-3.15,0.01-6.31,0.01-9.46C6.65,3.75,6.66,3.71,6.68,3.67z"/>
	<path id="part2"  d="M12.87,7.32c0,1.18,0,2.34,0,3.5c-0.01,0.08-0.03,0.16-0.08,0.22c-0.63,0.98-1.53,1.74-2.6,2.19
		V7.32H12.87z"/>
	<path id="part1"  d="M3.15,9.37h2.67v3.88c-0.25-0.11-0.49-0.23-0.72-0.38c-0.45-0.34-0.88-0.71-1.31-1.07
		C3.14,11.16,2.9,10.23,3.15,9.37z"/>
</g>
</svg>
