<?xml version="1.0" encoding="utf-8"?>
<!-- Generator: Adobe Illustrator 24.2.1, SVG Export Plug-In . SVG Version: 6.00 Build 0)  -->
<svg version="1.1" id="company" xmlns="http://www.w3.org/2000/svg" xmlns:xlink="http://www.w3.org/1999/xlink" x="0px" y="0px"
	 viewBox="0 0 20 20" style="enable-background:new 0 0 20 20;" xml:space="preserve">
<g id="g-company">
	<rect id="part5" x="7" y="11" class="st0" width="2" height="2"/>
	<rect id="part4" x="11" y="11" class="st0" width="2" height="2"/>
	<path id="part3" d="M17,18V2h-4.18c-0.4-1.17-1.51-2-2.82-2S7.58,0.83,7.18,2H3v16H0v2h20v-2H17z M10,2
		c0.55,0,1,0.45,1,1s-0.45,1-1,1S9,3.55,9,3S9.45,2,10,2z M15,18h-2v-3h-2v3H5V4h2.17c0.13,0.37,0.34,0.71,0.6,1
		C8.31,5.62,9.11,6,10,6s1.69-0.38,2.23-1c0.26-0.29,0.47-0.63,0.6-1H15V18z"/>
	<rect id="part2" x="7" y="7" class="st0" width="2" height="2"/>
	<rect id="part1" x="11" y="7" class="st0" width="2" height="2"/>
</g>
</svg>
