<svg id="company-28px" data-name="company-28px" xmlns="http://www.w3.org/2000/svg" viewBox="0 0 28 28">
  <g id="company-icon"><rect x="9.8" y="15.4" width="2.8" height="2.8"/>
    <rect x="15.4" y="15.4" width="2.8" height="2.8"/>
    <path d="M23.8,25.2V2.8H18a4.19,4.19,0,0,0-7.9,0H4.2V25.2H0V28H28V25.2ZM14,2.8a1.4,1.4,0,1,1-1.4,1.4A1.4,1.4,0,0,1,14,2.8Zm7,22.4H18.2V21H15.4v4.2H7V5.6h3A4.09,4.09,0,0,0,10.88,7a4.18,4.18,0,0,0,6.24,0A4.09,4.09,0,0,0,18,5.6h3Z"/>
    <rect x="9.8" y="9.8" width="2.8" height="2.8"/>
    <rect x="15.4" y="9.8" width="2.8" height="2.8"/>
  </g></svg>
