<?xml version="1.0" encoding="utf-8"?>
<!-- Generator: Adobe Illustrator 24.2.1, SVG Export Plug-In . SVG Version: 6.00 Build 0)  -->
<svg version="1.1" id="Heating" xmlns="http://www.w3.org/2000/svg" xmlns:xlink="http://www.w3.org/1999/xlink" x="0px" y="0px"
	 viewBox="0 0 20 20" style="enable-background:new 0 0 20 20;" xml:space="preserve">
<style type="text/css">
	.heatColor{fill:#2F9253;}
</style>
<g id="shape">
	<g id="Varme_6_">
		<path id="Shape_17_" class="heatColor" d="M13.59,20c3.24-1.41,4.27-3.57,4.17-5.87c-0.14-3.19-3.85-5.98-4.87-9.13
			c-0.54-1.69-0.28-3.53,0.7-5c-1.52,0.89-2.51,2.46-2.67,4.21c0.01,1.59,0.5,3.14,1.4,4.45c0.97,1.32,1.82,2.73,2.54,4.21
			C15.81,15.28,15.91,17.89,13.59,20L13.59,20z"/>
		<path id="Shape-2_7_" class="heatColor" d="M9.25,20c3.24-1.41,4.27-3.57,4.17-5.87C13.28,10.94,9.57,8.15,8.55,5
			c-0.54-1.69-0.28-3.53,0.7-5C7.73,0.89,6.74,2.45,6.58,4.2c0.01,1.59,0.49,3.14,1.4,4.45c0.97,1.32,1.82,2.73,2.54,4.21
			C11.44,15.28,11.56,17.89,9.25,20L9.25,20z"/>
		<path id="Shape-3_7_" class="heatColor" d="M4.9,20c3.24-1.41,4.27-3.57,4.17-5.87C8.93,10.94,5.23,8.15,4.21,5
			C3.67,3.31,3.92,1.47,4.9,0C3.39,0.89,2.39,2.45,2.23,4.2c0,1.59,0.49,3.15,1.41,4.45c0.97,1.32,1.82,2.73,2.54,4.21
			C7.1,15.28,7.22,17.89,4.9,20L4.9,20z"/>
	</g>
</g>
</svg>
