<?xml version="1.0" encoding="utf-8"?>
<!-- Generator: Adobe Illustrator 24.2.1, SVG Export Plug-In . SVG Version: 6.00 Build 0)  -->
<svg version="1.1" id="housing-block" xmlns="http://www.w3.org/2000/svg" xmlns:xlink="http://www.w3.org/1999/xlink" x="0px"
	 y="0px" viewBox="0 0 20 20" style="enable-background:new 0 0 20 20;" xml:space="preserve">
<g id="g-block">
	<path id="part7"  d="M15,2v16H5V2H15 M15,0H5C3.9,0,3,0.9,3,2v16c0,1.1,0.9,2,2,2h10c1.1,0,2-0.9,2-2V2
		C17,0.9,16.1,0,15,0L15,0z"/>
	<rect id="part6" x="7" y="4"  width="2" height="2"/>
	<rect id="part5" x="7" y="8"  width="2" height="2"/>
	<rect id="part4" x="7" y="12"  width="2" height="2"/>
	<rect id="part3" x="11" y="4"  width="2" height="2"/>
	<rect id="part2" x="11" y="8"  width="2" height="2"/>
	<rect id="part1" x="11" y="12"  width="2" height="2"/>
</g>
</svg>
