<?xml version="1.0" encoding="utf-8"?>
<!-- Generator: Adobe Illustrator 24.2.1, SVG Export Plug-In . SVG Version: 6.00 Build 0)  -->
<svg version="1.1" id="housing-department" xmlns="http://www.w3.org/2000/svg" xmlns:xlink="http://www.w3.org/1999/xlink" x="0px"
	 y="0px" viewBox="0 0 20 20" style="enable-background:new 0 0 20 20;" xml:space="preserve">
<g id="g-dept">
	<path id="part2"  d="M17,0H7C5.9,0,5,0.9,5,2v6H3c-1.1,0-2,0.9-2,2v9c0,0.6,0.4,1,1,1h16c0.6,0,1-0.4,1-1V2
		C19,0.9,18.1,0,17,0z M3,10h6v8H3V10z M17,18h-6v-8c0-1.1-0.9-2-2-2H7V2h10V18z"/>
	<path id="part1"  d="M9,4h2v2H9V4z M13,4h2v2h-2V4z M13,8h2v2h-2V8z M13,12h2v2h-2V12z M5,12h2v2H5V12z"/>
</g>
</svg>
