<?xml version="1.0" encoding="utf-8"?>
<!-- Generator: Adobe Illustrator 24.2.1, SVG Export Plug-In . SVG Version: 6.00 Build 0)  -->
<svg version="1.1" id="installation" xmlns="http://www.w3.org/2000/svg" xmlns:xlink="http://www.w3.org/1999/xlink" x="0px"
	 y="0px" viewBox="0 0 20 20" style="enable-background:new 0 0 20 20;" xml:space="preserve">
<path id="g-installation"  d="M9.98,19c-1.96,0-3.92,0-5.88,0c-0.7,0-1.1-0.41-1.1-1.11c0-3.25,0-6.51,0-9.76
	c0-0.36,0.12-0.66,0.38-0.92c1.95-1.94,3.89-3.88,5.83-5.83c0.51-0.51,1.07-0.51,1.58-0.01c1.95,1.95,3.91,3.91,5.86,5.86
	C16.88,7.47,17,7.74,17,8.07c0,3.29,0,6.59,0,9.88c0,0.62-0.42,1.04-1.04,1.05C13.96,19,11.97,19,9.98,19z M14.99,16.98
	c0-0.1,0-0.17,0-0.24c0-2.71,0-5.42-0.01-8.12c0-0.12-0.07-0.27-0.15-0.36c-1.55-1.56-3.11-3.12-4.66-4.67
	c-0.05-0.05-0.11-0.1-0.17-0.16C9.97,3.46,9.94,3.48,9.92,3.5c-1.6,1.6-3.2,3.2-4.8,4.81c-0.07,0.07-0.11,0.2-0.11,0.31
	c-0.01,2.72,0,5.43,0,8.15c0,0.07,0,0.15,0,0.22C8.35,16.98,11.66,16.98,14.99,16.98z"/>
</svg>
