<?xml version="1.0" encoding="utf-8"?>
<!-- Generator: Adobe Illustrator 24.2.1, SVG Export Plug-In . SVG Version: 6.00 Build 0)  -->
<svg version="1.1" id="installations" xmlns="http://www.w3.org/2000/svg" xmlns:xlink="http://www.w3.org/1999/xlink" x="0px"
	 y="0px" viewBox="0 0 20 20" style="enable-background:new 0 0 20 20;" xml:space="preserve">
<path id="part3" d="M6.48,18.37c-1.82,0-3.64,0-5.46,0C0.38,18.37,0,17.99,0,17.34c0-3.02,0-6.05,0-9.07
	c0-0.34,0.11-0.61,0.35-0.85C2.16,5.61,3.96,3.81,5.77,2c0.47-0.47,1-0.48,1.47-0.01c1.81,1.81,3.63,3.63,5.44,5.44
	C12.89,7.66,13,7.91,13,8.22c0,3.06,0,6.12,0,9.18c0,0.58-0.39,0.97-0.97,0.97C10.18,18.37,8.33,18.37,6.48,18.37z M11.14,16.49
	c0-0.09,0-0.16,0-0.22c0-2.52,0-5.03-0.01-7.55c0-0.11-0.06-0.25-0.14-0.33C9.55,6.94,8.1,5.5,6.66,4.05C6.61,4,6.56,3.96,6.5,3.91
	C6.47,3.94,6.44,3.95,6.42,3.97C4.94,5.46,3.45,6.95,1.97,8.44C1.9,8.5,1.87,8.63,1.87,8.72c-0.01,2.52,0,5.05,0,7.57
	c0,0.07,0,0.14,0,0.2C4.97,16.49,8.04,16.49,11.14,16.49z"/>
<path id="part2" d="M16.27,12.33c0,1.69,0,3.38,0,5.07c0,0.67-0.59,1.11-1.21,0.92c-0.39-0.12-0.64-0.47-0.64-0.91
	c0-1.31,0-2.61,0-3.92c0-1.89,0-3.77,0-5.66c0-0.16-0.04-0.27-0.16-0.38c-1.4-1.39-2.79-2.78-4.18-4.17
	c-0.26-0.25-0.38-0.55-0.3-0.91c0.08-0.35,0.3-0.59,0.65-0.69c0.37-0.11,0.69,0,0.95,0.26c1.01,1.01,2.01,2.01,3.02,3.02
	c0.5,0.5,1,1.01,1.51,1.51c0.25,0.24,0.35,0.51,0.35,0.85C16.27,8.99,16.28,10.66,16.27,12.33C16.27,12.33,16.27,12.33,16.27,12.33z
	"/>
<path id="part1" d="M20,11.85c0,1.84,0,3.67,0,5.51c0,0.56-0.37,0.98-0.88,1c-0.55,0.03-0.98-0.39-0.98-0.96
	c0-1.97,0-3.93,0-5.9c0-1.55,0-3.09,0-4.64c0-0.14-0.04-0.24-0.14-0.34c-1.1-1.09-2.19-2.18-3.29-3.27
	c-0.27-0.27-0.36-0.59-0.25-0.96c0.1-0.34,0.34-0.56,0.68-0.64c0.32-0.07,0.61,0,0.84,0.23c1.25,1.24,2.5,2.49,3.74,3.74
	C19.94,5.84,20,6.1,20,6.39C20,8.21,20,10.03,20,11.85z"/>
</svg>
