<?xml version="1.0" encoding="utf-8"?>
<!-- Generator: Adobe Illustrator 24.2.1, SVG Export Plug-In . SVG Version: 6.00 Build 0)  -->
<svg version="1.1" id="listing_1_" xmlns="http://www.w3.org/2000/svg" xmlns:xlink="http://www.w3.org/1999/xlink" x="0px" y="0px"
	 viewBox="0 0 20 20" style="enable-background:new 0 0 20 20;" xml:space="preserve">
<g id="listing">

		<rect x="0.02" y="6.66" transform="matrix(1 -1.720053e-03 1.720053e-03 1 -0.0134 1.962096e-03)" width="2.22" height="2.21"/>

		<rect x="0.02" y="11.11" transform="matrix(1 -1.720052e-03 1.720052e-03 1 -0.021 1.968675e-03)" width="2.22" height="2.19"/>

		<rect x="0.02" y="15.55" transform="matrix(1 -1.720055e-03 1.720055e-03 1 -0.0287 1.975305e-03)" width="2.22" height="2.22"/>

		<rect x="0.02" y="2.23" transform="matrix(1 -1.720053e-03 1.720053e-03 1 -5.740674e-03 1.955588e-03)" width="2.22" height="2.21"/>

		<rect x="4.46" y="6.67" transform="matrix(1 -1.720924e-03 1.720924e-03 1 -0.0134 0.021)" width="15.51" height="2.22"/>

		<rect x="4.46" y="11.11" transform="matrix(1 -1.719825e-03 1.719825e-03 1 -0.021 0.021)" width="15.51" height="2.22"/>

		<rect x="4.46" y="15.55" transform="matrix(1 -1.719825e-03 1.719825e-03 1 -0.0286 0.021)" width="15.51" height="2.22"/>

		<rect x="4.46" y="2.23" transform="matrix(1 -1.720052e-03 1.720052e-03 1 -5.730120e-03 0.021)" width="15.51" height="2.22"/>
</g>
</svg>
