<?xml version="1.0" encoding="utf-8"?>
<!-- Generator: Adobe Illustrator 24.2.1, SVG Export Plug-In . SVG Version: 6.00 Build 0)  -->
<svg version="1.1" id="map" xmlns="http://www.w3.org/2000/svg" xmlns:xlink="http://www.w3.org/1999/xlink" x="0px" y="0px"
	 viewBox="0 0 20 20" style="enable-background:new 0 0 20 20;" xml:space="preserve">
<path id="map_1_"  d="M10,10c-1.1,0-2-0.9-2-2s0.9-2,2-2s2,0.9,2,2S11.1,10,10,10z M16,8.2C16,4.57,13.35,2,10,2
	S4,4.57,4,8.2c0,2.34,1.95,5.44,6,9.14C14.05,13.64,16,10.54,16,8.2z M10,0c4.2,0,8,3.22,8,8.2c0,3.32-2.67,7.25-8,11.8
	c-5.33-4.55-8-8.48-8-11.8C2,3.22,5.8,0,10,0z"/>
</svg>
