<?xml version="1.0" encoding="utf-8"?>
<!-- Generator: Adobe Illustrator 24.2.1, SVG Export Plug-In . SVG Version: 6.00 Build 0)  -->
<svg version="1.1" id="measurements_1_" xmlns="http://www.w3.org/2000/svg" xmlns:xlink="http://www.w3.org/1999/xlink" x="0px"
	 y="0px" viewBox="0 0 20 20" style="enable-background:new 0 0 20 20;" xml:space="preserve">
<g id="g-measurements">
	<path id="part6" d="M15.51,4.25c-0.08,0.19,0.05,0.29,0.2,0.4c0.73,0.52,1.45,1.05,2.17,1.58
		c0.06,0.06,0.17,0.07,0.24,0.01c0.44-0.27,1.02-0.18,1.35,0.23c0.34,0.42,0.38,1.01,0.12,1.48c-0.27,0.45-0.83,0.65-1.32,0.46
		c-0.49-0.21-0.79-0.72-0.71-1.25c0.03-0.1-0.02-0.21-0.12-0.27c-0.76-0.55-1.52-1.11-2.28-1.66c-0.06-0.06-0.15-0.06-0.22-0.02
		c-0.45,0.3-1.05,0.19-1.37-0.24c-0.04-0.06-0.12-0.08-0.19-0.05c-0.92,0.29-1.83,0.58-2.75,0.87c-0.1,0.03-0.13,0.1-0.15,0.2
		c-0.07,0.6-0.6,1.03-1.2,0.96c0,0,0,0,0,0L9.23,6.94C8.65,6.83,8.25,6.29,8.3,5.7c0.02-0.11-0.04-0.21-0.14-0.26
		c-0.65-0.4-1.3-0.8-1.95-1.21C6.16,4.17,6.06,4.17,6,4.24L5.99,4.24C5.71,4.54,5.28,4.63,4.9,4.47C4.83,4.44,4.76,4.46,4.7,4.5
		C3.97,5.07,3.24,5.63,2.52,6.19C2.43,6.25,2.45,6.33,2.46,6.42C2.55,6.93,2.3,7.43,1.85,7.67c-0.45,0.21-0.97,0.1-1.3-0.27
		c-0.33-0.4-0.39-0.96-0.14-1.41C0.62,5.56,1.1,5.32,1.57,5.4c0.04,0,0.07,0.01,0.11,0.03C1.94,5.66,2.15,5.5,2.37,5.33
		c0.58-0.46,1.17-0.91,1.75-1.36c0.1-0.04,0.15-0.16,0.1-0.26c0,0,0,0,0,0C4.01,3.08,4.34,2.41,4.95,2.2c0,0,0.01,0,0.01,0L5,2.19
		c0.58-0.15,1.18,0.21,1.33,0.79C6.34,3.04,6.35,3.1,6.36,3.16c0.01,0.16,0.1,0.3,0.24,0.38c0.65,0.39,1.29,0.8,1.92,1.2
		c0.09,0.08,0.22,0.08,0.31,0c0.44-0.31,1.05-0.22,1.38,0.21c0.05,0.08,0.15,0.1,0.23,0.07c0.89-0.29,1.79-0.57,2.69-0.85
		c0.12-0.03,0.2-0.13,0.21-0.25c0.1-0.58,0.63-0.99,1.21-0.93C15.15,3.09,15.57,3.64,15.51,4.25z"/>
	<path id="part5" d="M6.73,12.4v4.94c0,0.43-0.07,0.5-0.49,0.5H4.3c-0.35,0-0.44-0.09-0.44-0.44v-10
		c0-0.36,0.09-0.46,0.45-0.46h2c0.35,0,0.43,0.09,0.43,0.44L6.73,12.4z"/>
	<path id="part4" d="M15.56,12.39v4.95c0,0.43-0.08,0.51-0.51,0.51h-1.95c-0.33,0-0.42-0.09-0.42-0.43V7.38
		c0-0.34,0.09-0.44,0.44-0.44c0.67,0,1.33,0,2,0c0.36,0,0.45,0.1,0.45,0.45C15.56,9.06,15.56,10.73,15.56,12.39z"/>
	<path id="part3" d="M8.18,13.53V9.7c0-0.39,0.09-0.48,0.47-0.48h1.97c0.33,0,0.43,0.1,0.43,0.42v7.77
		c0,0.34-0.09,0.43-0.42,0.43H8.62c-0.35,0-0.44-0.09-0.44-0.44C8.18,16.11,8.18,14.82,8.18,13.53z"/>
	<path id="part2" d="M2.88,14.28v3.11c0,0.37-0.08,0.45-0.44,0.45H0.42C0.1,17.85,0,17.75,0,17.44c0-2.11,0-4.23,0-6.34
		c0-0.3,0.11-0.4,0.4-0.4c0.68,0,1.36,0,2.04,0c0.35,0,0.44,0.08,0.44,0.43C2.88,12.18,2.88,13.23,2.88,14.28z"/>
	<path id="part1" d="M20,14.27v3.14c0,0.35-0.08,0.43-0.43,0.43h-2c-0.35,0-0.43-0.08-0.43-0.44v-6.28
		c0-0.37,0.08-0.44,0.45-0.44h2.02c0.31,0,0.39,0.09,0.39,0.4C20,12.15,20,13.21,20,14.27z"/>
</g>
</svg>
