<?xml version="1.0" encoding="utf-8"?>
<!-- Generator: Adobe Illustrator 24.2.1, SVG Export Plug-In . SVG Version: 6.00 Build 0)  -->
<svg version="1.1" id="search" xmlns="http://www.w3.org/2000/svg" xmlns:xlink="http://www.w3.org/1999/xlink" x="0px" y="0px"
	 viewBox="0 0 20 20" style="enable-background:new 0 0 20 20;" xml:space="preserve">
<path id="search_1_" d="M14.29,12.58h-0.9l-0.32-0.31c1.12-1.3,1.8-3,1.8-4.84C14.87,3.33,11.54,0,7.43,0S0,3.33,0,7.43
	s3.33,7.43,7.43,7.43c1.84,0,3.53-0.67,4.84-1.8l0.31,0.32v0.9L18.3,20l1.7-1.7L14.29,12.58z M7.43,12.58
	c-2.85,0-5.15-2.3-5.15-5.15s2.3-5.15,5.15-5.15s5.15,2.3,5.15,5.15S10.28,12.58,7.43,12.58z"/>
</svg>
