<?xml version="1.0" encoding="utf-8"?>
<!-- Generator: Adobe Illustrator 24.2.1, SVG Export Plug-In . SVG Version: 6.00 Build 0)  -->
<svg version="1.1" id="settings" xmlns="http://www.w3.org/2000/svg" xmlns:xlink="http://www.w3.org/1999/xlink" x="0px" y="0px"
	 viewBox="0 0 20 20" style="enable-background:new 0 0 20 20;" xml:space="preserve">
<path id="settings_1_"  d="M17.43,10.98c0.04-0.32,0.07-0.64,0.07-0.98c0-0.34-0.03-0.66-0.07-0.98l2.11-1.65
	c0.19-0.15,0.24-0.42,0.12-0.64l-2-3.46c-0.09-0.16-0.26-0.25-0.44-0.25c-0.06,0-0.12,0.01-0.17,0.03l-2.49,1
	c-0.52-0.4-1.08-0.73-1.69-0.98l-0.38-2.65C12.46,0.18,12.25,0,12,0H8C7.75,0,7.54,0.18,7.51,0.42L7.13,3.07
	C6.52,3.32,5.96,3.66,5.44,4.05l-2.49-1C2.89,3.03,2.83,3.02,2.77,3.02c-0.17,0-0.34,0.09-0.43,0.25l-2,3.46
	C0.21,6.95,0.27,7.22,0.46,7.37l2.11,1.65C2.53,9.34,2.5,9.67,2.5,10c0,0.33,0.03,0.66,0.07,0.98l-2.11,1.65
	c-0.19,0.15-0.24,0.42-0.12,0.64l2,3.46c0.09,0.16,0.26,0.25,0.44,0.25c0.06,0,0.12-0.01,0.17-0.03l2.49-1
	c0.52,0.4,1.08,0.73,1.69,0.98l0.38,2.65C7.54,19.82,7.75,20,8,20h4c0.25,0,0.46-0.18,0.49-0.42l0.38-2.65
	c0.61-0.25,1.17-0.59,1.69-0.98l2.49,1c0.06,0.02,0.12,0.03,0.18,0.03c0.17,0,0.34-0.09,0.43-0.25l2-3.46
	c0.12-0.22,0.07-0.49-0.12-0.64L17.43,10.98z M15.45,9.27C15.49,9.58,15.5,9.79,15.5,10c0,0.21-0.02,0.43-0.05,0.73l-0.14,1.13
	l0.89,0.7l1.08,0.84l-0.7,1.21l-1.27-0.51l-1.04-0.42l-0.9,0.68c-0.43,0.32-0.84,0.56-1.25,0.73l-1.06,0.43l-0.16,1.13L10.7,18H9.3
	l-0.19-1.35l-0.16-1.13l-1.06-0.43c-0.43-0.18-0.83-0.41-1.23-0.71l-0.91-0.7l-1.06,0.43l-1.27,0.51l-0.7-1.21l1.08-0.84l0.89-0.7
	l-0.14-1.13C4.52,10.43,4.5,10.2,4.5,10s0.02-0.43,0.05-0.73l0.14-1.13L3.8,7.44L2.72,6.6l0.7-1.21L4.69,5.9l1.04,0.42l0.9-0.68
	c0.43-0.32,0.84-0.56,1.25-0.73l1.06-0.43L9.1,3.35L9.3,2h1.39l0.19,1.35l0.16,1.13l1.06,0.43c0.43,0.18,0.83,0.41,1.23,0.71
	l0.91,0.7l1.06-0.43l1.27-0.51l0.7,1.21L16.2,7.44l-0.89,0.7C15.31,8.14,15.45,9.27,15.45,9.27z M10,6c-2.21,0-4,1.79-4,4
	s1.79,4,4,4s4-1.79,4-4S12.21,6,10,6z M10,12c-1.1,0-2-0.9-2-2s0.9-2,2-2s2,0.9,2,2S11.1,12,10,12z"/>
</svg>
