<?xml version="1.0" encoding="utf-8"?>
<!-- Generator: Adobe Illustrator 24.2.1, SVG Export Plug-In . SVG Version: 6.00 Build 0)  -->
<svg version="1.1" id="settings" xmlns="http://www.w3.org/2000/svg" xmlns:xlink="http://www.w3.org/1999/xlink" x="0px" y="0px"
	 viewBox="0 0 20 20" style="enable-background:new 0 0 20 20;" xml:space="preserve">
<style type="text/css">
	.w-settings{fill:#999DA3;}
</style>
<path id="c-settings" class="w-settings" d="M17.64,10.98c0.04-0.32,0.07-0.64,0.07-0.98c0-0.34-0.03-0.66-0.07-0.98l2.17-1.65
	c0.2-0.15,0.25-0.42,0.12-0.64l-2.06-3.46c-0.09-0.16-0.27-0.25-0.45-0.25c-0.06,0-0.12,0.01-0.17,0.03l-2.56,1
	c-0.53-0.4-1.11-0.73-1.74-0.98l-0.39-2.65C12.53,0.18,12.32,0,12.06,0H7.95c-0.26,0-0.47,0.18-0.5,0.42L7.05,3.07
	c-0.63,0.25-1.2,0.59-1.74,0.98l-2.56-1C2.69,3.03,2.63,3.02,2.57,3.02c-0.17,0-0.35,0.09-0.44,0.25L0.07,6.73
	C-0.06,6.95,0,7.22,0.19,7.37l2.17,1.65C2.32,9.34,2.29,9.67,2.29,10c0,0.33,0.03,0.66,0.07,0.98l-2.17,1.65
	c-0.2,0.15-0.25,0.42-0.12,0.64l2.06,3.46c0.09,0.16,0.27,0.25,0.45,0.25c0.06,0,0.12-0.01,0.17-0.03l2.56-1
	c0.53,0.4,1.11,0.73,1.74,0.98l0.39,2.65C7.47,19.82,7.69,20,7.95,20h4.11c0.26,0,0.47-0.18,0.5-0.42l0.39-2.65
	c0.63-0.25,1.2-0.59,1.74-0.98l2.56,1c0.06,0.02,0.12,0.03,0.19,0.03c0.17,0,0.35-0.09,0.44-0.25l2.06-3.46
	c0.12-0.22,0.07-0.49-0.12-0.64L17.64,10.98z M15.61,9.27c0.04,0.31,0.05,0.52,0.05,0.73c0,0.21-0.02,0.43-0.05,0.73l-0.14,1.13
	l0.91,0.7l1.11,0.84l-0.72,1.21l-1.31-0.51l-1.07-0.42l-0.93,0.68c-0.44,0.32-0.86,0.56-1.29,0.73l-1.09,0.43l-0.16,1.13L10.72,18
	H9.28l-0.2-1.35l-0.16-1.13l-1.09-0.43c-0.44-0.18-0.85-0.41-1.26-0.71l-0.94-0.7l-1.09,0.43l-1.31,0.51l-0.72-1.21l1.11-0.84
	l0.91-0.7L4.4,10.74C4.37,10.43,4.35,10.2,4.35,10S4.37,9.57,4.4,9.27l0.14-1.13l-0.91-0.7L2.52,6.6l0.72-1.21L4.54,5.9l1.07,0.42
	l0.93-0.68C6.98,5.32,7.4,5.08,7.82,4.91l1.09-0.43l0.16-1.13L9.28,2h1.43l0.2,1.35l0.16,1.13l1.09,0.43
	c0.44,0.18,0.85,0.41,1.26,0.71l0.94,0.7l1.09-0.43l1.31-0.51l0.72,1.21l-1.1,0.85l-0.91,0.7L15.61,9.27z M10,6
	c-2.27,0-4.11,1.79-4.11,4s1.84,4,4.11,4s4.11-1.79,4.11-4S12.27,6,10,6z M10,12c-1.13,0-2.06-0.9-2.06-2S8.87,8,10,8
	s2.06,0.9,2.06,2S11.13,12,10,12z"/>
</svg>
