<?xml version="1.0" encoding="utf-8"?>
<!-- Generator: Adobe Illustrator 24.2.1, SVG Export Plug-In . SVG Version: 6.00 Build 0)  -->
<svg version="1.1" id="directional" xmlns="http://www.w3.org/2000/svg" xmlns:xlink="http://www.w3.org/1999/xlink" x="0px"
	 y="0px" viewBox="0 0 20 20" style="enable-background:new 0 0 20 20;" xml:space="preserve">
<style type="text/css">
	.w-move{fill:#999DA3;}
</style>
<path id="d-path" class="w-move" d="M19.71,9.31l-3-3c-0.39-0.39-1.03-0.39-1.42,0s-0.39,1.03,0,1.42L16.58,9H11V3.41l1.29,1.3
	C12.48,4.9,12.73,5,13,5c0.27,0,0.52-0.1,0.71-0.29c0.39-0.39,0.39-1.02,0.01-1.41c0,0,0,0-0.01-0.01l-3-3C10.52,0.1,10.27,0,10,0
	C9.74,0,9.49,0.11,9.3,0.29l-3,3C5.91,3.68,5.91,4.31,6.3,4.7C6.68,5.1,7.32,5.1,7.71,4.71L9,3.42V9H3.41l1.3-1.29
	c0.39-0.39,0.39-1.03,0-1.42s-1.03-0.39-1.42,0l-3,3C0.1,9.48,0,9.73,0,10c0,0.27,0.1,0.52,0.29,0.71l3,3C3.48,13.9,3.73,14,4,14
	c0.27,0,0.52-0.1,0.71-0.29c0.39-0.39,0.39-1.02,0.01-1.41c0,0,0,0-0.01-0.01L3.42,11H9v5.59l-1.29-1.3c-0.39-0.39-1.03-0.39-1.42,0
	s-0.39,1.03,0,1.42l3,3C9.48,19.9,9.73,20,10,20c0.26,0,0.51-0.11,0.7-0.29l3-3c0.39-0.39,0.39-1.03,0-1.42
	c-0.39-0.39-1.03-0.39-1.42,0L11,16.58V11h5.59l-1.3,1.29c-0.39,0.39-0.39,1.02-0.01,1.41c0,0,0,0,0.01,0.01
	C15.48,13.9,15.73,14,16,14c0.27,0,0.52-0.1,0.71-0.29l3-3C19.9,10.52,20,10.27,20,10C20,9.74,19.89,9.49,19.71,9.31z"/>
</svg>
