<?xml version="1.0" encoding="UTF-8" standalone="no"?>
<svg viewBox="0 0 242 65" version="1.1" xmlns="http://www.w3.org/2000/svg" xmlns:xlink="http://www.w3.org/1999/xlink" xmlns:sketch="http://www.bohemiancoding.com/sketch/ns">
    <!-- Generator: Sketch 3.2.2 (9983) - http://www.bohemiancoding.com/sketch -->
    <title>Artboard 1</title>
    <desc>Created with Sketch.</desc>
    <defs></defs>
    <g id="Page-1" stroke="none" stroke-width="1" fill="none" fill-rule="evenodd" sketch:type="MSPage">
        <g id="Artboard-1" sketch:type="MSArtboardGroup">
            <g id="Keepfocus-RGB" sketch:type="MSLayerGroup" transform="translate(10.000000, 10.000000)">
                <g id="text2816_3_" transform="translate(0.047806, 0.867377)" fill="#4C5356" sketch:type="MSShapeGroup">
                    <path d="M15.3442089,42.6293378 L22.063257,42.6293378 L13.0092206,19.3133316 L22.063257,0.583289301 L15.6777787,0.583289301 L7.00496495,18.9271451 L7.00496495,0.583289301 L0.476528228,0.583289301 L0.476528228,42.6293378 L7.00496495,42.6293378 L7.00496495,29.6920921 L9.00638351,25.8302277 L15.3442089,42.6293378" id="path2847_3_"></path>
                    <path d="M31.4985159,6.56917909 L42.7922349,6.56917909 L42.7922349,0.583289301 L25.017732,0.583289301 L25.017732,42.6293378 L42.7922349,42.6293378 L42.7922349,36.643448 L31.4985159,36.643448 L31.4985159,24.3337553 L40.4572466,24.3337553 L40.4572466,18.3478655 L31.4985159,18.3478655 L31.4985159,6.56917909" id="path2849_3_"></path>
                    <path d="M53.3235087,6.56917909 L64.6172277,6.56917909 L64.6172277,0.583289301 L46.8427248,0.583289301 L46.8427248,42.6293378 L64.6172277,42.6293378 L64.6172277,36.643448 L53.3235087,36.643448 L53.3235087,24.3337553 L62.2822394,24.3337553 L62.2822394,18.3478655 L53.3235087,18.3478655 L53.3235087,6.56917909" id="path2851_3_"></path>
                    <path d="M78.1506294,0.583289301 L68.572412,0.583289301 L68.572412,42.6293378 L75.1008487,42.6293378 L75.1008487,26.8439671 L78.1506294,26.8439671 C84.6790661,26.8439671 87.8718053,23.1751959 87.8718053,16.4652066 L87.8718053,11.0103231 C87.8718053,4.20378716 84.6790661,0.583289301 78.1506294,0.583289301 M78.1506294,6.56917909 C80.2473536,6.56917909 81.3433685,7.53464519 81.3433685,10.5275901 L81.3433685,16.851393 C81.3433685,19.8443379 80.1997008,20.809804 78.1506294,20.809804 L75.0531959,20.809804 L75.0531959,6.56917909 L78.1506294,6.56917909" id="path2853_3_"></path>
                    <path d="M97.4500226,6.56917909 L108.171908,6.56917909 L108.171908,0.583289301 L90.9215859,0.583289301 L90.9215859,42.6293378 L97.4500226,42.6293378 L97.4500226,25.250948 L105.884572,25.250948 L105.884572,19.2650583 L97.4500226,19.2650583 L97.4500226,6.56917909" id="path2855_3_"></path>
                    <path d="M168.97691,26.9405137 L168.97691,32.9264035 C168.97691,35.9193484 167.690283,37.0296344 165.593559,37.0296344 C163.496835,37.0296344 162.210209,35.9676217 162.210209,32.9264035 L162.210209,10.189677 C162.210209,7.19673206 163.496835,6.03817274 165.593559,6.03817274 C167.690283,6.03817274 168.97691,7.19673206 168.97691,10.189677 L168.97691,14.6790943 L175.124124,14.6790943 L175.124124,10.5758634 C175.124124,3.86587403 171.788426,0.00400964362 165.402948,0.00400964362 C159.01747,0.00400964362 155.681772,3.86587403 155.681772,10.5758634 L155.681772,32.4436705 C155.681772,39.1536598 159.01747,43.0155242 165.402948,43.0155242 C171.788426,43.0155242 175.124124,39.1536598 175.124124,32.4436705 L175.124124,26.8439671 L168.97691,26.8439671" id="path2859_3_"></path>
                    <path d="M178.841044,0.583289301 L178.841044,32.5884904 C178.841044,39.2984797 182.176742,43.1603441 188.56222,43.1603441 C194.947698,43.1603441 198.283396,39.2984797 198.283396,32.5884904 L198.283396,0.583289301 L192.136182,0.583289301 L192.136182,33.0229501 C192.136182,36.015895 190.849555,37.126181 188.752831,37.126181 C186.656107,37.126181 185.369481,36.0641683 185.369481,33.0229501 L185.369481,0.583289301 L178.841044,0.583289301" id="path2861_3_"></path>
                    <path d="M201.952663,10.67241 C201.952663,22.6924629 214.72362,24.3337553 214.72362,32.9746768 C214.72362,35.9676217 213.436993,37.0779077 211.340269,37.0779077 C209.243545,37.0779077 207.956919,36.015895 207.956919,32.9746768 L207.956919,29.6920921 L201.809705,29.6920921 L201.809705,32.5884904 C201.809705,39.2984797 205.145402,43.1603441 211.53088,43.1603441 C217.916359,43.1603441 221.252056,39.2984797 221.252056,32.5884904 C221.252056,20.5684375 208.4811,18.9271451 208.4811,10.2862236 C208.4811,7.29327867 209.67242,6.13471935 211.721492,6.13471935 C213.818216,6.13471935 214.961884,7.29327867 214.961884,10.2862236 L214.961884,12.3137024 L221.109098,12.3137024 L221.109098,10.67241 C221.109098,3.96242064 217.868706,0.100556253 211.483228,0.100556253 C205.193055,0.100556253 201.952663,3.91414733 201.952663,10.67241" id="path2863_3_"></path>
                </g>
                <path d="M130.028571,18.5265957 L130.028571,0 C118.448052,0.526595745 109.174026,9.76595745 108.597403,21.2553191 L127.145455,21.2553191 C127.577922,19.9148936 128.683117,18.8617021 130.028571,18.5265957 L130.028571,18.5265957 Z" id="Shape" fill="#FF5800" sketch:type="MSShapeGroup"></path>
                <path d="M134.977922,21.2553191 L153.525974,21.2553191 C152.949351,9.76595745 143.675325,0.526595745 132.094805,0 L132.094805,18.5265957 C133.488312,18.8617021 134.545455,19.9148936 134.977922,21.2553191 L134.977922,21.2553191 Z" id="Shape" fill="#FF5800" sketch:type="MSShapeGroup"></path>
                <path d="M127.049351,23.3138298 L108.597403,23.3138298 C109.077922,34.8989362 118.4,44.2340426 130.028571,44.712766 L130.028571,26.3776596 C128.538961,25.9946809 127.385714,24.7978723 127.049351,23.3138298 L127.049351,23.3138298 Z" id="Shape" fill="#FF5800" sketch:type="MSShapeGroup"></path>
                <path d="M135.074026,23.3138298 C134.737662,24.7978723 133.584416,25.9946809 132.094805,26.3776596 L132.094805,44.712766 C143.723377,44.1861702 153.045455,34.8989362 153.525974,23.3138298 L135.074026,23.3138298 L135.074026,23.3138298 Z" id="Shape" fill="#FF5800" sketch:type="MSShapeGroup"></path>
            </g>
        </g>
    </g>
</svg>