<svg style="position: absolute; width: 0; height: 0; overflow: hidden;" version="1.1" xmlns="http://www.w3.org/2000/svg" xmlns:xlink="http://www.w3.org/1999/xlink">
  <defs>

    <symbol id="admin" viewBox="0 0 20 20">
      <title>admin</title>
      <path d="M9.97-0.02L1.78,3.62v5.45c0,5.05,3.49,9.76,8.18,10.91c4.69-1.15,8.18-5.86,8.18-10.91V3.62
	L9.97-0.02z M9.97,9.97h6.36c-0.48,3.75-2.98,7.08-6.36,8.13V9.97L3.6,9.98V4.8l6.36-2.83V9.97z"/>
    </symbol>

    <symbol id="alarm" viewBox="0 0 20 20">
      <title>alarm</title>
      <path d="M20,3.81l-4.6-3.82l-1.3,1.54l4.6,3.82L20,3.81z M5.85,1.48l-1.3-1.54L0,3.81l1.3,1.54L5.85,1.48z
	 M10.5,6.04H9V12l4.75,2.83l0.75-1.24l-4-2.33L10.5,6.04L10.5,6.04z M10,2.07c-4.97,0-8.99,4.03-8.99,9c0,4.97,4.03,8.99,9,8.99
	c4.97,0,8.99-4.03,8.99-9c0-4.96-4.03-8.99-8.99-8.99H10z M10,17.95c-3.84-0.03-6.92-3.16-6.9-7c0.03-3.84,3.16-6.92,7-6.9
	C13.92,4.08,17,7.19,17,11c0,3.84-3.11,6.95-6.95,6.95C10.03,17.95,10.02,17.95,10,17.95z"/>
    </symbol>

    <symbol id="alarms" viewBox="0 0 20 20">
      <title>alarms</title>
      <path d="M10,20c1.38,0,2.5-1.12,2.5-2.5h-5C7.5,18.88,8.62,20,10,20z M18.41,14.15
	c-0.76-0.81-2.17-2.03-2.17-6.03c0-2.96-2.1-5.5-5-6.06V1.25C11.25,0.56,10.69,0,10,0S8.75,0.56,8.75,1.25v0.81
	c-2.9,0.56-5,3.1-5,6.06c0,4-1.41,5.22-2.17,6.03C1.37,14.38,1.25,14.69,1.25,15c0,0.69,0.56,1.25,1.25,1.25h15
	c0.69,0,1.25-0.56,1.25-1.25l0,0C18.75,14.68,18.63,14.38,18.41,14.15z"/>
    </symbol>

    <symbol id="analysis" viewBox="0 0 20 20">
      <title>analysis</title>
        <path d="M8,0c4.42,0,8,3.58,8,8c0,4.42-3.58,8-8,8c-4.42,0-8-3.58-8-8c0-0.01,0-0.02,0-0.03
		C0.01,3.56,3.59,0,8,0z M8,1.54c-3.57,0-6.47,2.9-6.47,6.47c0,3.57,2.9,6.47,6.47,6.47c3.56,0,6.46-2.89,6.47-6.45
		c0.02-3.56-2.85-6.47-6.41-6.49C8.04,1.54,8.01,1.54,8,1.54L8,1.54z"/>
        <path d="M12.65,15.49c1.14-0.72,2.1-1.68,2.82-2.82c0.08,0.06,0.16,0.11,0.23,0.17
		c1.18,1.04,2.36,2.07,3.53,3.12c0.75,0.65,0.99,1.73,0.58,2.64c-0.38,0.9-1.3,1.46-2.27,1.39c-0.55-0.01-1.07-0.25-1.45-0.65
		C14.94,18.08,13.81,16.8,12.65,15.49z"/>
        <path d="M6.68,3.67h2.68v0.42c0,3-0.01,6.01,0.01,9.01c0,0.35-0.1,0.5-0.44,0.5
		c-0.66-0.01-1.32-0.01-1.98-0.02c-0.21,0-0.31-0.1-0.31-0.33c0.01-3.15,0.01-6.31,0.01-9.46C6.65,3.75,6.66,3.71,6.68,3.67z"/>
        <path d="M12.87,7.32c0,1.18,0,2.34,0,3.5c-0.01,0.08-0.03,0.16-0.08,0.22c-0.63,0.98-1.53,1.74-2.6,2.19
		V7.32H12.87z"/>
        <path d="M3.15,9.37h2.67v3.88c-0.25-0.11-0.49-0.23-0.72-0.38c-0.45-0.34-0.88-0.71-1.31-1.07
		C3.14,11.16,2.9,10.23,3.15,9.37z"/>
    </symbol>

    <symbol id="close" viewBox="0 0 16 16">
      <title>close</title>
      <path d="M18,3.61,16.39,2,10,8.39,3.61,2,2,3.61,8.39,10,2,16.39,3.61,18,10,11.61,16.39,18,18,16.39,11.61,10Z" transform="translate(-2 -2)"/>
    </symbol>

    <symbol id="company" viewBox="0 0 20 20">
      <title>company</title>
        <rect x="7" y="11" width="2" height="2"/>
        <rect x="11" y="11" width="2" height="2"/>
        <path d="M17,18V2h-4.18c-0.4-1.17-1.51-2-2.82-2S7.58,0.83,7.18,2H3v16H0v2h20v-2H17z M10,2
		c0.55,0,1,0.45,1,1s-0.45,1-1,1S9,3.55,9,3S9.45,2,10,2z M15,18h-2v-3h-2v3H5V4h2.17c0.13,0.37,0.34,0.71,0.6,1
		C8.31,5.62,9.11,6,10,6s1.69-0.38,2.23-1c0.26-0.29,0.47-0.63,0.6-1H15V18z"/>
        <rect x="7" y="7" width="2" height="2"/>
        <rect x="11" y="7" width="2" height="2"/>
    </symbol>

    <symbol id="dashboard" viewBox="0 0 20 20">
      <title>dashboard</title>
      <path d="M0,11.11h8.89V0H0V11.11z M0,20h8.89v-6.67H0V20z M11.11,20H20V8.89h-8.89V20z M11.11,0v6.67H20 V0H11.11z"/>
    </symbol>

    <symbol id="electricity" viewBox="0 0 13.23 20">
      <title>electricity</title>
      <path d="M5.86,20,16.62,9.26H10.3L14.14,0,3.38,10.74H9.69Z" transform="translate(-3.38)"/>
    </symbol>

    <symbol id="heating" viewBox="0 0 20 20">
      <title>heating</title>
          <path d="M13.59,20c3.24-1.41,4.27-3.57,4.17-5.87c-0.14-3.19-3.85-5.98-4.87-9.13
			c-0.54-1.69-0.28-3.53,0.7-5c-1.52,0.89-2.51,2.46-2.67,4.21c0.01,1.59,0.5,3.14,1.4,4.45c0.97,1.32,1.82,2.73,2.54,4.21
			C15.81,15.28,15.91,17.89,13.59,20L13.59,20z"/>
          <path d="M9.25,20c3.24-1.41,4.27-3.57,4.17-5.87C13.28,10.94,9.57,8.15,8.55,5
			c-0.54-1.69-0.28-3.53,0.7-5C7.73,0.89,6.74,2.45,6.58,4.2c0.01,1.59,0.49,3.14,1.4,4.45c0.97,1.32,1.82,2.73,2.54,4.21
			C11.44,15.28,11.56,17.89,9.25,20L9.25,20z"/>
          <path d="M4.9,20c3.24-1.41,4.27-3.57,4.17-5.87C8.93,10.94,5.23,8.15,4.21,5
			C3.67,3.31,3.92,1.47,4.9,0C3.39,0.89,2.39,2.45,2.23,4.2c0,1.59,0.49,3.15,1.41,4.45c0.97,1.32,1.82,2.73,2.54,4.21
			C7.1,15.28,7.22,17.89,4.9,20L4.9,20z"/>
    </symbol>

    <symbol id="housing-block" viewBox="0 0 20 20">
      <title>housing-block</title>
      <path d="M15,2v16H5V2H15 M15,0H5C3.9,0,3,0.9,3,2v16c0,1.1,0.9,2,2,2h10c1.1,0,2-0.9,2-2V2
		C17,0.9,16.1,0,15,0L15,0z"/>
      <rect  x="7" y="4"  width="2" height="2"/>
      <rect  x="7" y="8"  width="2" height="2"/>
      <rect  x="7" y="12"  width="2" height="2"/>
      <rect  x="11" y="4"  width="2" height="2"/>
      <rect  x="11" y="8"  width="2" height="2"/>
      <rect  x="11" y="12"  width="2" height="2"/>
    </symbol>

  </defs>
</svg>
